# xmcd
#
# Track frame offsets: 
#        150
#        23694
#        42021
#        57062
#        72092
#        85124
#        101305
#        113529
#        125152
#        141439
#        155155
#        168948
#        182995
#        201372
#        213365
#        232554
#        249011
#
# Disc length: 3488 seconds
#
# Revision: 2
# Processed by: cddbd v1.5.2PL0 Copyright (c) Steve Scherf et al.
# Submitted via: ExactAudioCopy v0.99pb5
#
DISCID=d90d9e11
DTITLE=Various Artist - Pure... Country Stars - CD 1
DYEAR=2014
DGENRE=Country
TTITLE0=Brad Paisley - This is country music
TTITLE1=Alan Jackson - Country boy
TTITLE2=Kenny Chesney - Out last night
TTITLE3=Billy Ray Cyrus - Crazy 'bout you baby
TTITLE4=Aaron Tippin - Honky-tonk superman
TTITLE5=Travis Tritt - Honky-tonk history
TTITLE6=Ken Mellons - Jukebox junkie
TTITLE7=Rick Trevino - I want a girl in a pick-up truck
TTITLE8=Joe Diffie - Pickup man
TTITLE9=Tracy Byrd - Ten rounds with José Cuervo
TTITLE10=Ricochet - Daddy's money
TTITLE11=Love And Theft - Angel eyes
TTITLE12=Diamond Rio - How your love makes me feel
TTITLE13=Restless Heart  - You can depend on me
TTITLE14=Montgomery Gentry  - Something to be proud of
TTITLE15=Chris Young - Tomorrow 
TTITLE16=Jake Owen - Barefoot blue jean night
EXTD=
EXTT0=
EXTT1=
EXTT2=
EXTT3=
EXTT4=
EXTT5=
EXTT6=
EXTT7=
EXTT8=
EXTT9=
EXTT10=
EXTT11=
EXTT12=
EXTT13=
EXTT14=
EXTT15=
EXTT16=
PLAYORDER=
